{"title":"This Ain't Homeland XXX WEB-DL","uid":8888547,"size":1241036442,"categoryP":"porn","categoryS":"movies","magnet":"?xt=urn:btih:0bdf09bf615e9531a2ab1b0b9a300258c121e3b4&amp;dn=This+Ain%27t+Homeland+XXX+WEB-DL&amp;tr=udp%3A%2F%2Ftracker.openbittorrent.com%3A80&amp;tr=udp%3A%2F%2Fopen.demonii.com%3A1337&amp;tr=udp%3A%2F%2Ftracker.coppersurfer.tk%3A6969&amp;tr=udp%3A%2F%2Fexodus.desync.com%3A6969","seeders":0,"leechers":2,"uploader":null,"files":5,"time":1378526006,"description":" &lt;a href=&quot;http://picturemost.biz/share.php?id=803D_522A86AD&quot; rel=&quot;nofollow&quot; target=&quot;_NEW&quot;&gt;http://picturemost.biz/share.php?id=803D_522A86AD&lt;/a&gt;\n\n &lt;a href=&quot;\nhttp://picturemost.biz/share.php?id=7E05_522A86AD&quot; rel=&quot;nofollow&quot; target=&quot;_NEW&quot;&gt;\nhttp://picturemost.biz/share.php?id=7E05_522A86AD&lt;/a&gt;\n\n &lt;a href=&quot;\nhttp://picturemost.biz/share.php?id=1C7A_522A86AD&quot; rel=&quot;nofollow&quot; target=&quot;_NEW&quot;&gt;\nhttp://picturemost.biz/share.php?id=1C7A_522A86AD&lt;/a&gt;\n\n\nFrom acclaimed director Axel Braun comes the hilariously sexy spoof of one of the most popular shows on TV. Carrie Mathison, a bipolar CIA officer, is told by an informant that an American prisoner of war has been turned. Convinced that 'turned' means 'gay', she sets her sights on US Marine sergeant Nicholas Brody and becomes obsessed with uncovering the truth behind the alleged war hero. Featuring a stellar cast, a hysterical script, and standout acting performances.\n\nWidth : 960 pixels\nHeight : 540 pixels\nDisplay aspect ratio : 16:9\nFrame rate mode : Constant\nFrame rate : 29.970 fps\nColor space : YUV\nChroma subsampling : 4:2:0\nBit depth : 8 bits\nScan type : Progressive\nBits/(Pixel*Frame) : 0.097\nStream size : 275 MiB (92%)\nLanguage : English\nEncoded date : UTC 2013-08-23 18:30:59\nTagged date : UTC 2013-08-23 18:32:09\nColor primaries : BT.709\nTransfer characteristics : BT.709\nMatrix coefficients : BT.709\n\nAudio\nID : 2\nFormat : AAC\nFormat/Info : Advanced Audio Codec\nFormat profile : LC\nCodec ID : 40\nDuration : 25mn 36s\nBit rate mode : Constant\nBit rate : 128 Kbps\nChannel(s) : 2 channels\nChannel positions : Front: L R\nSampling rate : 44.1 KHz\nCompression mode : Lossy\nStream size : 23.6 MiB (8%)\nLanguage : English\nEncoded date : UTC 2013-08-23 18:31:00\nTagged date : UTC 2013-08-23 18:32:09","torrent":{"xt":"urn:btih:0bdf09bf615e9531a2ab1b0b9a300258c121e3b4","amp;dn":"This+Ain%27t+Homeland+XXX+WEB-DL","amp;tr":["udp%3A%2F%2Ftracker.openbittorrent.com%3A80","udp%3A%2F%2Fopen.demonii.com%3A1337","udp%3A%2F%2Ftracker.coppersurfer.tk%3A6969","udp%3A%2F%2Fexodus.desync.com%3A6969"],"infoHash":"0bdf09bf615e9531a2ab1b0b9a300258c121e3b4","infoHashBuffer":{"type":"Buffer","data":[11,223,9,191,97,94,149,49,162,171,27,11,154,48,2,88,193,33,227,180]},"announce":[],"urlList":[]}}